<svg xmlns="http://www.w3.org/2000/svg" width="413" height="48" viewBox="0 0 413 48">
<g>
<path d="M 242.39 34.57 C241.39,31.98 242.79,29.83 245.25,30.18 C246.90,30.41 247.50,31.17 247.50,33.00 C247.50,34.83 246.90,35.59 245.25,35.82 C243.89,36.01 242.75,35.51 242.39,34.57 Z" fill="rgba(255,0,0,1)"/>
<path d="M 24.00 26.00 C24.00,17.78 24.27,16.00 25.50,16.00 C26.61,16.00 27.00,17.17 27.00,20.50 C27.00,22.98 27.36,25.00 27.79,25.00 C28.23,25.00 30.57,22.98 33.00,20.50 C35.43,18.02 38.32,16.00 39.42,16.00 C41.08,16.00 40.72,16.71 37.28,20.25 L 33.14 24.50 L 37.57 30.00 C41.21,34.52 41.69,35.57 40.27,35.87 C39.20,36.10 37.09,34.61 34.76,31.97 C31.07,27.82 30.92,27.76 28.99,29.51 C27.89,30.50 27.00,32.37 27.00,33.65 C27.00,35.07 26.41,36.00 25.50,36.00 C24.27,36.00 24.00,34.22 24.00,26.00 ZM 45.00 26.00 C45.00,17.78 45.27,16.00 46.50,16.00 C47.73,16.00 48.00,17.78 48.00,26.00 C48.00,34.22 47.73,36.00 46.50,36.00 C45.27,36.00 45.00,34.22 45.00,26.00 ZM 54.00 26.00 L 54.00 16.00 L 60.28 16.00 C68.16,16.00 71.00,17.73 71.00,22.52 C71.00,24.64 70.24,26.63 68.98,27.80 L 66.96 29.68 L 68.98 32.25 C71.45,35.39 71.50,36.00 69.25,36.00 C68.29,36.00 66.60,34.65 65.50,33.00 C64.09,30.89 62.69,30.00 60.75,30.00 C58.36,30.00 58.00,30.39 58.00,33.00 C58.00,35.33 57.56,36.00 56.00,36.00 C54.13,36.00 54.00,35.33 54.00,26.00 ZM 66.43 25.43 C68.29,23.57 68.30,23.44 66.96,20.93 C66.21,19.52 64.86,19.00 61.96,19.00 C58.01,19.00 58.00,19.01 58.00,23.00 C58.00,26.89 58.10,27.00 61.43,27.00 C63.31,27.00 65.56,26.29 66.43,25.43 ZM 73.94 33.75 C74.42,32.51 76.43,28.01 78.39,23.75 C81.14,17.76 82.42,16.00 84.00,16.00 C85.20,16.00 86.42,16.94 86.94,18.25 C87.42,19.49 89.43,23.99 91.39,28.25 C94.71,35.48 94.81,36.00 92.95,36.00 C91.74,36.00 90.58,35.02 90.00,33.50 C89.16,31.29 88.47,31.00 84.00,31.00 C79.59,31.00 78.81,31.31 77.82,33.50 C76.31,36.80 72.64,37.04 73.94,33.75 ZM 87.00 26.95 C87.00,26.37 86.25,24.46 85.34,22.70 C84.18,20.47 83.53,19.96 83.20,21.00 C82.94,21.83 82.10,23.74 81.34,25.25 C79.95,27.99 79.96,28.00 83.47,28.00 C85.41,28.00 87.00,27.53 87.00,26.95 ZM 97.00 26.00 C97.00,16.78 97.15,16.00 98.93,16.00 C100.11,16.00 102.72,18.36 105.58,22.00 C108.17,25.30 110.68,28.00 111.15,28.00 C111.62,28.00 112.00,25.30 112.00,22.00 C112.00,17.33 112.33,16.00 113.50,16.00 C114.73,16.00 115.00,17.78 115.00,26.00 C115.00,38.31 114.25,38.61 106.84,29.29 L 101.50 22.57 L 101.20 29.29 C100.94,35.18 100.67,36.00 98.95,36.00 C97.15,36.00 97.00,35.26 97.00,26.00 ZM 129.00 26.00 C129.00,16.67 129.13,16.00 131.00,16.00 C132.75,16.00 133.00,16.67 133.00,21.23 L 133.00 26.47 L 137.58 21.23 C140.92,17.41 142.86,16.00 144.79,16.00 C147.37,16.00 147.33,16.08 143.05,20.45 L 138.68 24.91 L 143.42 30.45 C147.76,35.53 147.96,36.00 145.85,36.00 C144.39,36.00 142.23,34.46 139.91,31.77 C136.72,28.07 136.06,27.71 134.63,28.89 C133.73,29.64 133.00,31.54 133.00,33.12 C133.00,35.33 132.54,36.00 131.00,36.00 C129.13,36.00 129.00,35.33 129.00,26.00 ZM 152.17 33.69 C150.33,31.72 150.00,30.20 150.00,23.69 C150.00,17.52 150.30,16.00 151.50,16.00 C152.67,16.00 153.00,17.36 153.00,22.28 C153.00,29.46 154.81,33.00 158.50,33.00 C162.19,33.00 164.00,29.46 164.00,22.28 C164.00,17.36 164.33,16.00 165.50,16.00 C166.71,16.00 167.00,17.54 167.00,23.83 C167.00,30.71 166.72,31.91 164.69,33.83 C161.44,36.88 155.10,36.80 152.17,33.69 ZM 173.00 25.93 C173.00,17.01 173.19,15.89 174.69,16.18 C175.62,16.36 177.86,18.98 179.68,22.00 C181.49,25.02 183.39,27.63 183.89,27.80 C184.40,27.97 186.31,25.38 188.13,22.05 C190.26,18.18 192.10,16.00 193.23,16.00 C194.81,16.00 195.00,17.10 195.00,26.00 C195.00,34.08 194.72,36.00 193.55,36.00 C192.45,36.00 192.02,34.35 191.80,29.25 L 191.50 22.50 L 188.02 28.25 C186.10,31.41 184.22,34.00 183.84,34.00 C183.46,34.00 181.65,31.41 179.82,28.25 L 176.50 22.50 L 176.20 29.25 C175.98,34.35 175.55,36.00 174.45,36.00 C173.28,36.00 173.00,34.07 173.00,25.93 ZM 198.94 33.75 C199.42,32.51 201.43,28.01 203.39,23.75 C206.14,17.76 207.42,16.00 209.00,16.00 C210.20,16.00 211.42,16.94 211.94,18.25 C212.42,19.49 214.43,23.99 216.39,28.25 C219.71,35.48 219.81,36.00 217.95,36.00 C216.74,36.00 215.58,35.02 215.00,33.50 C214.16,31.29 213.47,31.00 209.00,31.00 C204.59,31.00 203.81,31.31 202.82,33.50 C201.31,36.80 197.64,37.04 198.94,33.75 ZM 212.00 26.95 C212.00,26.37 211.25,24.46 210.34,22.70 C209.18,20.47 208.53,19.96 208.20,21.00 C207.94,21.83 207.10,23.74 206.34,25.25 C204.95,27.99 204.96,28.00 208.47,28.00 C210.41,28.00 212.00,27.53 212.00,26.95 ZM 223.00 26.00 L 223.00 16.00 L 229.43 16.00 C235.18,16.00 236.07,16.28 237.93,18.63 C240.54,21.96 240.54,24.04 237.93,27.36 L 235.86 29.99 L 238.00 33.00 C240.10,35.95 240.11,36.00 238.14,36.00 C237.04,36.00 235.17,34.65 234.00,33.00 C232.46,30.83 231.05,30.00 228.93,30.00 C226.34,30.00 226.00,30.35 226.00,33.00 C226.00,35.00 225.50,36.00 224.50,36.00 C223.27,36.00 223.00,34.22 223.00,26.00 ZM 235.39 24.75 C237.18,21.91 234.95,19.55 230.15,19.19 L 226.00 18.89 L 226.00 23.00 L 226.00 27.11 L 230.15 26.81 C232.76,26.61 234.70,25.85 235.39,24.75 ZM 260.14 35.11 C259.33,34.60 259.04,33.45 259.41,32.27 C259.98,30.50 260.45,30.40 263.87,31.31 C267.90,32.39 271.54,31.69 270.52,30.03 C270.19,29.50 268.15,28.58 266.00,28.00 C261.28,26.73 259.00,24.64 259.00,21.58 C259.00,17.88 262.54,15.50 268.05,15.50 C273.26,15.50 275.42,16.74 274.48,19.20 C274.02,20.38 272.84,20.62 269.44,20.24 C265.88,19.84 265.00,20.05 265.00,21.29 C265.00,22.23 266.27,23.11 268.25,23.52 C270.04,23.89 272.51,24.84 273.75,25.62 C276.77,27.54 276.79,32.33 273.78,34.44 C271.38,36.12 262.43,36.56 260.14,35.11 ZM 279.00 26.00 L 279.00 16.00 L 282.00 16.00 L 285.00 16.00 L 285.00 26.00 L 285.00 36.00 L 282.00 36.00 L 279.00 36.00 L 279.00 26.00 ZM 294.00 32.55 C294.00,30.42 292.67,26.83 290.50,23.14 C288.58,19.85 287.00,16.90 287.00,16.58 C287.00,16.26 288.14,16.00 289.53,16.00 C291.37,16.00 292.64,16.96 294.13,19.50 C295.27,21.42 296.50,23.00 296.87,23.00 C297.24,23.00 298.39,21.42 299.43,19.50 C301.22,16.17 301.57,16.00 306.69,16.00 C311.78,16.00 312.18,16.19 314.13,19.50 C315.27,21.42 316.50,23.00 316.87,23.00 C317.24,23.00 318.39,21.42 319.43,19.50 C320.92,16.73 321.92,16.00 324.24,16.00 L 327.16 16.00 L 325.19 19.25 C324.10,21.04 322.26,24.08 321.11,26.00 C319.95,27.92 319.01,30.96 319.00,32.75 C319.00,35.55 318.65,36.00 316.50,36.00 C314.32,36.00 314.00,35.56 314.00,32.55 C314.00,29.57 307.47,16.15 306.51,17.18 C303.99,19.88 299.00,30.22 299.00,32.75 C299.00,35.55 298.65,36.00 296.50,36.00 C294.32,36.00 294.00,35.56 294.00,32.55 ZM 329.44 26.25 C333.59,16.89 333.88,16.50 336.91,16.50 C339.94,16.50 340.25,16.90 344.46,26.25 L 348.85 36.00 L 345.96 36.00 C344.09,36.00 342.69,35.29 342.00,34.00 C341.18,32.47 339.91,32.00 336.58,32.00 C333.07,32.00 332.13,32.39 331.71,34.00 C331.33,35.45 330.35,36.00 328.15,36.00 L 325.12 36.00 L 329.44 26.25 ZM 339.00 26.93 C339.00,26.35 338.48,24.90 337.84,23.71 C336.71,21.59 336.67,21.59 335.91,23.52 C334.62,26.83 334.91,28.00 337.00,28.00 C338.10,28.00 339.00,27.52 339.00,26.93 ZM 351.00 26.11 L 351.00 16.00 L 357.57 16.00 C367.48,16.00 370.91,18.49 370.97,25.69 C370.99,28.71 370.33,30.67 368.61,32.67 C366.46,35.17 365.45,35.49 358.61,35.83 L 351.00 36.22 L 351.00 26.11 ZM 361.66 30.94 C363.20,30.35 364.80,29.34 365.21,28.69 C367.53,25.05 363.92,20.00 359.00,20.00 C356.04,20.00 356.00,20.07 356.00,25.33 C356.00,32.36 356.54,32.89 361.66,30.94 ZM 375.00 26.00 L 375.00 16.00 L 381.93 16.00 C388.22,16.00 389.04,16.24 390.93,18.63 C393.50,21.91 393.58,25.42 391.12,27.88 C389.28,29.72 389.29,29.82 391.22,32.88 L 393.20 36.00 L 390.35 36.01 C388.36,36.02 386.72,35.06 384.90,32.86 C382.05,29.38 380.00,29.68 380.00,33.56 C380.00,35.50 379.48,36.00 377.50,36.00 L 375.00 36.00 L 375.00 26.00 ZM 386.50 23.00 C386.50,20.91 385.97,20.45 383.25,20.19 C380.21,19.89 380.00,20.07 380.00,23.00 C380.00,25.93 380.21,26.11 383.25,25.81 C385.97,25.55 386.50,25.09 386.50,23.00 ZM 396.00 26.00 L 396.00 16.00 L 399.00 16.00 L 402.00 16.00 L 402.00 26.00 L 402.00 36.00 L 399.00 36.00 L 396.00 36.00 L 396.00 26.00 Z" fill="rgba(255,255,255,1)"/>
</g>
</svg>